<svg width="283" height="65" viewBox="0 0 283 65" fill="none" xmlns="http://www.w3.org/2000/svg">
<path d="M61.6826 36.4432V53.11C61.6826 59.3855 56.624 64.5134 50.4333 64.5134H11.2493C5.05859 64.5134 0 59.3855 0 53.11V11.4034C0 5.12789 5.05859 0 11.2493 0H50.4333C56.624 0 61.6826 5.12789 61.6826 11.4034V13.8367C67.1516 14.715 71.1928 19.5152 71.1928 25.1404C71.1928 30.7656 67.1516 35.5657 61.6826 36.4432ZM55.1677 27.044C53.5123 25.3659 56.03 22.8137 57.6854 24.4919L58.7735 25.5949L61.9042 20.8603C63.201 18.8972 66.1497 20.8979 64.8521 22.8618L60.5988 29.2955C60.0289 30.3347 58.6252 30.548 57.7837 29.6949L55.1677 27.044ZM58.1225 13.8367V11.4034C58.1225 7.12066 54.6582 3.60884 50.4333 3.60884H11.2493C7.02444 3.60884 3.56093 7.12066 3.56093 11.4034V53.11C3.56093 57.3927 7.02444 60.9045 11.2493 60.9045H50.4333C54.6582 60.9045 58.1225 57.3927 58.1225 53.11V36.4432C52.6535 35.5657 48.6124 30.7656 48.6124 25.1404C48.6124 19.5152 52.6535 14.715 58.1225 13.8367ZM59.9021 17.3039C55.6333 17.3039 52.1724 20.8122 52.1724 25.1404C52.1724 29.4677 55.6333 32.976 59.9021 32.976C64.1718 32.976 67.6327 29.4677 67.6327 25.1404C67.6327 20.8122 64.1718 17.3039 59.9021 17.3039ZM11.0863 55.8247C8.74541 55.8247 8.74541 52.215 11.0863 52.215H50.5963C52.9381 52.215 52.9381 55.8247 50.5963 55.8247H11.0863ZM11.0863 49.2599C8.74541 49.2599 8.74541 45.6502 11.0863 45.6502H50.5963C52.9381 45.6502 52.9381 49.2599 50.5963 49.2599H11.0863ZM11.0863 42.6951C8.74541 42.6951 8.74541 39.0854 11.0863 39.0854H38.515C40.8559 39.0854 40.8559 42.6951 38.515 42.6951H11.0863ZM21.2087 8.68866C25.243 8.68866 28.5133 12.0047 28.5133 16.0934C28.5133 17.3922 28.1779 18.663 27.5382 19.787C29.9575 21.7064 31.394 24.6387 31.394 27.7633V34.3255C31.394 35.3219 30.5964 36.1303 29.6135 36.1303H12.8038C11.8209 36.1303 11.0242 35.3219 11.0242 34.3255V27.7633C11.0242 24.6387 12.4598 21.7064 14.8792 19.787C14.2394 18.663 13.904 17.3922 13.904 16.0934C13.904 12.0047 17.1753 8.68866 21.2087 8.68866ZM21.2087 12.2975C19.1411 12.2975 17.4641 13.9966 17.4641 16.0934C17.4641 17.1728 17.9012 18.1867 18.6902 18.913C19.611 19.7608 19.4058 21.3078 18.2616 21.8628C16.0208 22.951 14.5843 25.2426 14.5843 27.7633V32.5215H27.8339V27.7633C27.8339 25.282 26.4423 23.0218 24.2557 21.9126C23.0573 21.4223 22.7477 19.8106 23.7246 18.9095C24.5144 18.184 24.9533 17.1737 24.9533 16.0934C24.9533 13.9975 23.2771 12.2975 21.2087 12.2975Z" fill="#2CB1BC"/>
<path d="M95.0771 35.6689V16.9844H100.495V35.6875C100.495 37.4811 100.149 39.0335 99.4561 40.3447C98.7757 41.6436 97.848 42.6393 96.6729 43.332C95.4977 44.0247 94.1742 44.3711 92.7021 44.3711C91.193 44.3711 89.8447 44.0742 88.6572 43.4805C87.4821 42.8743 86.5544 41.959 85.874 40.7344C85.1937 39.4974 84.8535 37.9264 84.8535 36.0215H90.3086C90.3086 36.9863 90.4076 37.7471 90.6055 38.3037C90.8034 38.8604 91.0817 39.2624 91.4404 39.5098C91.8115 39.7572 92.2321 39.8809 92.7021 39.8809C93.2093 39.8809 93.6361 39.7139 93.9824 39.3799C94.3411 39.0459 94.6133 38.5697 94.7988 37.9512C94.9844 37.3203 95.0771 36.5596 95.0771 35.6689ZM103.965 34.6484V33.2939C103.965 31.723 104.15 30.3314 104.521 29.1191C104.905 27.9069 105.449 26.8926 106.154 26.0762C106.859 25.2474 107.707 24.6227 108.696 24.2021C109.698 23.7692 110.818 23.5527 112.055 23.5527C113.304 23.5527 114.424 23.7692 115.413 24.2021C116.415 24.6227 117.269 25.2474 117.974 26.0762C118.691 26.8926 119.242 27.9069 119.625 29.1191C120.008 30.3314 120.2 31.723 120.2 33.2939V34.6484C120.2 36.207 120.008 37.5924 119.625 38.8047C119.242 40.0169 118.691 41.0374 117.974 41.8662C117.269 42.695 116.421 43.3197 115.432 43.7402C114.442 44.1608 113.329 44.3711 112.092 44.3711C110.855 44.3711 109.735 44.1608 108.733 43.7402C107.744 43.3197 106.89 42.695 106.173 41.8662C105.455 41.0374 104.905 40.0169 104.521 38.8047C104.15 37.5924 103.965 36.207 103.965 34.6484ZM109.16 33.2939V34.6484C109.16 35.5762 109.222 36.3802 109.346 37.0605C109.482 37.7409 109.674 38.3037 109.921 38.749C110.181 39.1943 110.49 39.5221 110.849 39.7324C111.207 39.9427 111.622 40.0479 112.092 40.0479C112.562 40.0479 112.982 39.9427 113.354 39.7324C113.725 39.5221 114.028 39.1943 114.263 38.749C114.51 38.3037 114.689 37.7409 114.801 37.0605C114.924 36.3802 114.986 35.5762 114.986 34.6484V33.2939C114.986 32.391 114.918 31.5993 114.782 30.9189C114.646 30.2262 114.454 29.6634 114.207 29.2305C113.96 28.7852 113.65 28.4512 113.279 28.2285C112.921 27.9935 112.512 27.876 112.055 27.876C111.597 27.876 111.189 27.9935 110.83 28.2285C110.484 28.4512 110.181 28.7852 109.921 29.2305C109.674 29.6634 109.482 30.2262 109.346 30.9189C109.222 31.5993 109.16 32.391 109.16 33.2939ZM123.503 15.5H128.68V39.3428L128.309 44H123.503V15.5ZM139.107 33.2939V34.6113C139.107 36.2441 138.978 37.6667 138.718 38.8789C138.47 40.0911 138.081 41.1055 137.549 41.9219C137.029 42.7383 136.361 43.3506 135.545 43.7588C134.729 44.167 133.764 44.3711 132.65 44.3711C131.648 44.3711 130.789 44.1361 130.071 43.666C129.354 43.1836 128.748 42.5218 128.253 41.6807C127.771 40.8271 127.375 39.8314 127.065 38.6934C126.769 37.543 126.552 36.2874 126.416 34.9268V32.9785C126.54 31.6426 126.75 30.3994 127.047 29.249C127.356 28.0986 127.752 27.1029 128.234 26.2617C128.717 25.4082 129.317 24.7464 130.034 24.2764C130.764 23.7939 131.624 23.5527 132.613 23.5527C133.751 23.5527 134.729 23.763 135.545 24.1836C136.361 24.5918 137.029 25.2041 137.549 26.0205C138.081 26.8369 138.47 27.8574 138.718 29.082C138.978 30.2943 139.107 31.6982 139.107 33.2939ZM133.931 34.6113V33.2939C133.931 32.3662 133.894 31.5684 133.819 30.9004C133.745 30.2324 133.609 29.6758 133.411 29.2305C133.213 28.7852 132.929 28.4512 132.558 28.2285C132.199 28.0059 131.723 27.8945 131.129 27.8945C130.597 27.8945 130.152 27.9997 129.793 28.21C129.434 28.4079 129.125 28.7048 128.865 29.1006C128.618 29.484 128.432 29.9417 128.309 30.4736C128.197 30.9932 128.135 31.5684 128.123 32.1992V35.7061C128.135 36.5596 128.241 37.3141 128.438 37.9697C128.636 38.6253 128.952 39.1325 129.385 39.4912C129.83 39.8499 130.424 40.0293 131.166 40.0293C131.747 40.0293 132.217 39.9303 132.576 39.7324C132.935 39.5345 133.213 39.2191 133.411 38.7861C133.621 38.3532 133.757 37.7965 133.819 37.1162C133.894 36.4235 133.931 35.5885 133.931 34.6113ZM160.965 16.9844V44H155.565V16.9844H160.965ZM167.682 16.9844V21.4932H148.979V16.9844H167.682ZM174.547 28.3955V44H169.352V23.9238H174.25L174.547 28.3955ZM179.278 23.7754L179.204 28.9521C178.969 28.9027 178.685 28.8656 178.351 28.8408C178.029 28.8161 177.744 28.8037 177.497 28.8037C176.916 28.8037 176.421 28.8965 176.013 29.082C175.604 29.2552 175.264 29.5212 174.992 29.8799C174.732 30.2262 174.535 30.6592 174.398 31.1787C174.262 31.6982 174.182 32.2858 174.157 32.9414L173.174 32.5703C173.174 31.2591 173.273 30.0592 173.471 28.9707C173.681 27.8698 173.99 26.9173 174.398 26.1133C174.807 25.2969 175.295 24.666 175.864 24.2207C176.446 23.7754 177.101 23.5527 177.831 23.5527C178.078 23.5527 178.338 23.5775 178.61 23.627C178.895 23.6641 179.118 23.7135 179.278 23.7754ZM190.226 39.3799V30.1025C190.226 29.4964 190.151 29.014 190.003 28.6553C189.867 28.2965 189.657 28.0368 189.372 27.876C189.1 27.7028 188.766 27.6162 188.37 27.6162C187.925 27.6162 187.554 27.709 187.257 27.8945C186.96 28.0801 186.737 28.346 186.589 28.6924C186.453 29.0387 186.385 29.4531 186.385 29.9355H181.171C181.171 29.0697 181.338 28.2533 181.672 27.4863C182.006 26.707 182.494 26.0267 183.138 25.4453C183.793 24.8516 184.573 24.3877 185.476 24.0537C186.379 23.7197 187.393 23.5527 188.519 23.5527C189.854 23.5527 191.042 23.7816 192.081 24.2393C193.12 24.6846 193.943 25.3958 194.549 26.373C195.155 27.3503 195.458 28.6182 195.458 30.1768V39.1201C195.458 40.2458 195.514 41.1611 195.625 41.8662C195.749 42.5713 195.928 43.1774 196.163 43.6846V44H190.931C190.696 43.4434 190.516 42.7507 190.393 41.9219C190.281 41.0807 190.226 40.2334 190.226 39.3799ZM190.856 31.7354L190.875 34.8525H188.964C188.469 34.8525 188.036 34.9329 187.665 35.0938C187.306 35.2546 187.003 35.4834 186.756 35.7803C186.508 36.0648 186.323 36.3988 186.199 36.7822C186.088 37.1657 186.032 37.5739 186.032 38.0068C186.032 38.4893 186.1 38.8975 186.236 39.2314C186.372 39.5654 186.576 39.819 186.849 39.9922C187.121 40.1654 187.442 40.252 187.813 40.252C188.382 40.252 188.877 40.1344 189.298 39.8994C189.718 39.6644 190.028 39.3799 190.226 39.0459C190.436 38.7119 190.504 38.4027 190.43 38.1182L191.617 40.1406C191.469 40.5983 191.265 41.0745 191.005 41.5693C190.757 42.0641 190.442 42.5218 190.059 42.9424C189.675 43.363 189.199 43.7093 188.63 43.9814C188.073 44.2412 187.411 44.3711 186.645 44.3711C185.568 44.3711 184.585 44.1237 183.694 43.6289C182.804 43.1341 182.099 42.4414 181.579 41.5508C181.072 40.6602 180.818 39.6025 180.818 38.3779C180.818 37.3636 180.979 36.4482 181.301 35.6318C181.635 34.8031 182.13 34.1042 182.785 33.5352C183.441 32.9538 184.27 32.5085 185.271 32.1992C186.273 31.89 187.449 31.7354 188.797 31.7354H190.856ZM206.554 40.0479C207.036 40.0479 207.451 39.9489 207.797 39.751C208.156 39.5531 208.428 39.2314 208.613 38.7861C208.799 38.3408 208.898 37.7656 208.91 37.0605H213.79C213.79 38.5697 213.468 39.8747 212.825 40.9756C212.194 42.0641 211.341 42.9053 210.265 43.499C209.201 44.0804 207.995 44.3711 206.646 44.3711C205.298 44.3711 204.123 44.1546 203.121 43.7217C202.119 43.2887 201.29 42.6579 200.635 41.8291C199.992 41.0003 199.503 39.9922 199.169 38.8047C198.847 37.6048 198.687 36.2318 198.687 34.6855V33.2197C198.687 31.6982 198.847 30.3376 199.169 29.1377C199.503 27.9378 199.992 26.9235 200.635 26.0947C201.29 25.266 202.113 24.6351 203.103 24.2021C204.104 23.7692 205.28 23.5527 206.628 23.5527C208.075 23.5527 209.331 23.8558 210.395 24.4619C211.458 25.0557 212.287 25.9339 212.881 27.0967C213.487 28.2594 213.79 29.6943 213.79 31.4014H208.91C208.898 30.6344 208.805 29.9974 208.632 29.4902C208.471 28.9707 208.217 28.5749 207.871 28.3027C207.537 28.0182 207.092 27.876 206.535 27.876C205.954 27.876 205.484 27.9997 205.125 28.2471C204.779 28.4821 204.513 28.8285 204.327 29.2861C204.154 29.7314 204.036 30.2881 203.975 30.9561C203.913 31.624 203.882 32.3786 203.882 33.2197V34.6855C203.882 35.5885 203.907 36.374 203.956 37.042C204.018 37.6976 204.135 38.2542 204.309 38.7119C204.494 39.1572 204.76 39.4912 205.106 39.7139C205.465 39.9365 205.948 40.0479 206.554 40.0479ZM221.973 15.4814V44H216.777V15.4814H221.973ZM232.53 23.9238L225.461 33.9062L221.212 38.6748L219.375 34.7227L222.641 29.9541L226.333 23.9238H232.53ZM227.112 44L222.733 34.7783L226.314 31.4756L233.068 44H227.112ZM242.68 44.3711C241.307 44.3711 240.088 44.1608 239.024 43.7402C237.973 43.3197 237.082 42.7135 236.353 41.9219C235.623 41.1178 235.066 40.1468 234.683 39.0088C234.299 37.8708 234.107 36.5719 234.107 35.1123V33.4609C234.107 31.8281 234.293 30.3994 234.664 29.1748C235.035 27.9378 235.561 26.8988 236.241 26.0576C236.922 25.2165 237.757 24.5918 238.746 24.1836C239.748 23.763 240.88 23.5527 242.142 23.5527C243.403 23.5527 244.51 23.763 245.463 24.1836C246.428 24.5918 247.226 25.2103 247.856 26.0391C248.487 26.8555 248.964 27.8698 249.285 29.082C249.607 30.2943 249.768 31.7044 249.768 33.3125V35.6875H236.315V32.0322H244.665V31.5684C244.665 30.752 244.578 30.0716 244.405 29.5273C244.232 28.9707 243.96 28.5563 243.589 28.2842C243.218 28.012 242.723 27.876 242.104 27.876C241.585 27.876 241.146 27.9811 240.787 28.1914C240.428 28.4017 240.144 28.7295 239.934 29.1748C239.723 29.6201 239.569 30.2015 239.47 30.9189C239.371 31.624 239.321 32.4714 239.321 33.4609V35.1123C239.321 36.04 239.402 36.8193 239.562 37.4502C239.723 38.0687 239.958 38.5758 240.268 38.9717C240.589 39.3551 240.979 39.6335 241.437 39.8066C241.894 39.9674 242.426 40.0479 243.032 40.0479C243.948 40.0479 244.77 39.887 245.5 39.5654C246.242 39.2314 246.873 38.7799 247.393 38.2109L249.471 41.3652C249.112 41.8353 248.617 42.3053 247.986 42.7754C247.355 43.2454 246.601 43.6289 245.723 43.9258C244.844 44.2227 243.83 44.3711 242.68 44.3711ZM257.969 28.3955V44H252.773V23.9238H257.672L257.969 28.3955ZM262.7 23.7754L262.626 28.9521C262.391 28.9027 262.106 28.8656 261.772 28.8408C261.451 28.8161 261.166 28.8037 260.919 28.8037C260.338 28.8037 259.843 28.8965 259.435 29.082C259.026 29.2552 258.686 29.5212 258.414 29.8799C258.154 30.2262 257.956 30.6592 257.82 31.1787C257.684 31.6982 257.604 32.2858 257.579 32.9414L256.596 32.5703C256.596 31.2591 256.695 30.0592 256.893 28.9707C257.103 27.8698 257.412 26.9173 257.82 26.1133C258.229 25.2969 258.717 24.666 259.286 24.2207C259.868 23.7754 260.523 23.5527 261.253 23.5527C261.5 23.5527 261.76 23.5775 262.032 23.627C262.317 23.6641 262.539 23.7135 262.7 23.7754Z" fill="#2CB1BC"/>
</svg>
